<svg width="24" height="24" viewBox="0 0 24 24" fill="none" xmlns="http://www.w3.org/2000/svg">
<path d="M12 17C12.2833 17 12.521 16.904 12.713 16.712C12.905 16.52 13.0007 16.2827 13 16V13H16.025C16.3083 13 16.5417 12.904 16.725 12.712C16.9083 12.52 17 12.2827 17 12C17 11.7167 16.904 11.479 16.712 11.287C16.52 11.095 16.2827 10.9993 16 11H13V7.975C13 7.69167 12.904 7.45833 12.712 7.275C12.52 7.09167 12.2827 7 12 7C11.7167 7 11.479 7.096 11.287 7.288C11.095 7.48 10.9993 7.71733 11 8V11H7.975C7.69167 11 7.45833 11.096 7.275 11.288C7.09167 11.48 7 11.7173 7 12C7 12.2833 7.096 12.521 7.288 12.713C7.48 12.905 7.71733 13.0007 8 13H11V16.025C11 16.3083 11.096 16.5417 11.288 16.725C11.48 16.9083 11.7173 17 12 17ZM12 22C10.6167 22 9.31667 21.7373 8.1 21.212C6.88333 20.6867 5.825 19.9743 4.925 19.075C4.025 18.175 3.31267 17.1167 2.788 15.9C2.26333 14.6833 2.00067 13.3833 2 12C2 10.6167 2.26267 9.31667 2.788 8.1C3.31333 6.88333 4.02567 5.825 4.925 4.925C5.825 4.025 6.88333 3.31267 8.1 2.788C9.31667 2.26333 10.6167 2.00067 12 2C13.3833 2 14.6833 2.26267 15.9 2.788C17.1167 3.31333 18.175 4.02567 19.075 4.925C19.975 5.825 20.6877 6.88333 21.213 8.1C21.7383 9.31667 22.0007 10.6167 22 12C22 13.3833 21.7373 14.6833 21.212 15.9C20.6867 17.1167 19.9743 18.175 19.075 19.075C18.175 19.975 17.1167 20.6877 15.9 21.213C14.6833 21.7383 13.3833 22.0007 12 22ZM12 20C14.2167 20 16.1043 19.221 17.663 17.663C19.2217 16.105 20.0007 14.2173 20 12C20 9.78333 19.221 7.89567 17.663 6.337C16.105 4.77833 14.2173 3.99933 12 4C9.78333 4 7.89567 4.779 6.337 6.337C4.77833 7.895 3.99933 9.78267 4 12C4 14.2167 4.779 16.1043 6.337 17.663C7.895 19.2217 9.78267 20.0007 12 20Z" fill="#F8F8F8"/>
</svg>
